<?xml version="1.0" encoding="utf-8"?>
<!-- Generator: Adobe Illustrator 16.0.0, SVG Export Plug-In . SVG Version: 6.00 Build 0)  -->
<!DOCTYPE svg PUBLIC "-//W3C//DTD SVG 1.1//EN" "http://www.w3.org/Graphics/SVG/1.1/DTD/svg11.dtd">
<svg version="1.1" id="Layer_1" xmlns="http://www.w3.org/2000/svg" xmlns:xlink="http://www.w3.org/1999/xlink" x="0px" y="0px"
	 width="500px" height="500px" viewBox="0 0 500 500" enable-background="new 0 0 500 500" xml:space="preserve">
<g id="Layer_1_1_" display="none">
	<g id="nd5a6U.tif" display="inline">
		
			<image overflow="visible" enable-background="new    " width="129" height="214" id="Layer_0_1_" xlink:href="1F98E10FE3114F16.png"  transform="matrix(1 0 0 1 185 143)">
		</image>
	</g>
</g>
<g id="Layer_2" display="none">
	<polygon display="inline" fill="#7F7F7F" points="189,342.666 189,167 318,286.666 256.333,292 290.667,369.334 267,381 
		233.334,302 	"/>
</g>
<g id="Layer_3" display="none">
	<path display="inline" fill="#7F7F7F" d="M308.968,113.668V97.134c0-35.512-28.788-64.3-64.301-64.3
		c-35.512,0-64.3,28.788-64.3,64.3v16.534H114v299.666h261.334V113.668H308.968z M192.167,100c0-28.995,23.505-52.5,52.5-52.5
		s52.5,23.505,52.5,52.5v13.668h-105V100L192.167,100z"/>
	<polygon display="inline" fill="none" points="192,335.666 192,160 321,279.666 259.333,285 293.667,362.334 270,374 236.334,295 	
		"/>
</g>
<path fill="#7F7F7F" d="M324.636,138.23h-16.098h-13.854H191.233h-13.853H152.81h-39.228v290.272h258.754V138.23H324.636z
	 M278.376,349.552l-16.726,8.245l-23.792-55.83l-31.332,28.74V206.561l91.166,84.57l-43.581,3.769L278.376,349.552z"/>
<polygon fill="#7F7F7F" points="290.711,68.5 187.905,68.5 168.824,87.581 168.824,145.855 198.502,145.855 198.502,90.19 
	284.027,90.19 284.027,145.855 313.707,145.855 313.707,91.497 "/>
</svg>
