<?xml version="1.0" standalone="no"?>
<svg width="54" height="98"
     xmlns="http://www.w3.org/2000/svg" version="1.1" xmlns:xlink="http://www.w3.org/1999/xlink">
    <defs>
        <style type="text/css"><![CDATA[
            .green { fill: #509732; stroke: #509732; }
        ]]></style>
        
        <mask id="circle-16">
            <rect height="16" width="16" x="0" y="0" fill="#FFF"/>
            <circle cx="8" cy="8" r="8" fill="#000"/>
        </mask>
        
        <symbol id="shoppingCart" stroke-width="0">
            <!-- 18x16 -->
            <path d="M4.86,11.932c-1.36,0-2.96-2.479-1.059-4.259C1.688,1.6,3.493,6.871,1.529,1.103c-0.406,0-0.355,0-0.928,0
                C0.118,0.195,0,0,0,0c0.707,0,1.507,0,2.986,0c0.503,1.294,0.062,0.162,0.593,1.51C15.35,1.171,17.003,1.109,18,1.109
                c0,1.661,0,4.055,0,5.324C12.593,7.46,13.5,7.309,5.131,9.002c-0.574,0.116-0.422,1.147,0.151,1.178c0.875,0.046,11.208,0,12.658,0
                c0,1.147,0,0.453,0,1.752H4.86z"/>
            <circle cx="16.12" cy="14.219" r="1.813"/>
            <circle cx="6.785" cy="14.219" r="1.812"/>
        </symbol>
        
        <symbol id="heart" stroke-width="0">
            <!-- 16x16 -->
            <path d="M8,16c0.6-0.7,4.3-4.6,6.5-7.1c2-2.2,1.9-5.4,0.2-7.4c-1.9-1.9-4.8-1.9-6.6,0c-1.9-2-4.8-2-6.6,0c-1.9,1.9-1.9,5.1,0.2,7.4C3.8,11.3,7.4,15.3,8,16"/>
        </symbol>
        
        <symbol id="twitter" stroke-width="0" fill="#FFF">
            <!-- 12x10 -->
            <path d="M12,1.19c-0.44,0.2-0.92,0.34-1.41,0.4c0.51-0.31,0.9-0.81,1.08-1.4c-0.48,0.29-1,0.5-1.56,0.61
                C9.65,0.31,9.02,0,8.31,0C6.95,0,5.85,1.13,5.85,2.53c0,0.2,0.02,0.39,0.06,0.58C3.86,3,2.05,1.99,0.84,0.46
                C0.62,0.83,0.5,1.27,0.5,1.73c0,0.88,0.44,1.65,1.1,2.1C1.2,3.82,0.82,3.71,0.48,3.52c0,0.01,0,0.02,0,0.03
                c0,1.22,0.85,2.24,1.97,2.48C2.25,6.08,2.03,6.11,1.81,6.11c-0.16,0-0.31-0.02-0.46-0.05c0.31,1,1.22,1.74,2.3,1.75
                C2.8,8.5,1.74,8.9,0.59,8.9C0.39,8.9,0.19,8.89,0,8.87C1.09,9.58,2.38,10,3.77,10c4.53,0,7-3.85,7-7.18c0-0.11,0-0.22-0.01-0.33
                C11.25,2.13,11.67,1.69,12,1.19L12,1.19z"/>
        </symbol>
        
        <symbol id="facebook" stroke-width="0" fill="#FFF">
            <path d="M3.19,5.72C3.19,3.79,4.21,0,9.83,0c2.49,0,3.47,0,4.95,0c0,1.85,0.01,3.36,0.01,5.57c-1.17,0-2.45,0-3.48,0
                c-0.78,0-1.49,0.66-1.49,1.37c0,1.04,0,2.37,0,3.66c2.27,0,1.96,0,4.97,0c-0.61,5.27-0.02,0.21-0.61,5.34c-1.76,0-2.72,0-4.42,0
                c0,2.09,0,14.29,0,16.06c-1.47,0-2.64,0-6.56,0c0-2.9,0.01-14.36,0.01-16.08c-1.68,0-1.39,0.02-3.2,0.02c0-1.99,0-2.95,0-5.35
                c1.87,0,0.96,0,3.18,0C3.18,9.39,3.19,7.45,3.19,5.72z"/>
        </symbol>
    </defs>
    <!--rect x="0" y="0" height="100%" width="100%" fill="#999"/-->
    
    <!--
        Roughly laid out in columns. First is 20px wide, second is 18, third is 16…
    -->    
    <g id="knockoutTick" transform="translate(38,0)">
        <!-- 16x16 -->
        <rect height="16" width="16" x="0" y="0" mask="url(#circle-16)" fill="#FFF"/>
        <path d="M5,8L6.5,12L12,4" stroke-width="1.9" stroke-linejoin="round" stroke-linecap="round" stroke="#FFF" fill="none"/>
    </g>
    <g id="knockoutPling" transform="translate(38,32)">
        <!-- 16x16 -->
        <rect height="16" width="16" x="0" y="0" mask="url(#circle-16)" fill="#FFF"/>
        <path d="M7,2.5L9,2.5L9,9.5L7,9.5X" fill="#FFF" stroke-width="0"/>
        <circle cx="8" cy="12" r="1.25" fill="#FFF" stroke-width="0"/>
    </g>
    <g id="closeButton">
        <!-- 20x40 -->
        <circle cx="10" cy="10" r="10" stroke-width="0" fill="#CCC"/>
        <path d="M6.5,6.5L13.5,13.5M6.5,13.5L13.5,6.5" stroke-width="2" stroke="#FFF"/>
        <path d="M6.5,6.5L13.5,13.5M6.5,13.5L13.5,6.5" transform="translate(0,20)" stroke-width="2" stroke="#CCC"/>
    </g>
    
    <g id="cart-add" transform="translate(20,0)">
        <!-- 18x14 -->
        <g stroke="rgba(0,0,0,0.25)" fill="rgba(0,0,0,0.25)">
            <use xlink:href="#shoppingCart" x="5" transform="scale(0.78)"/>
            <path d="M0.5,6.5L4.5,6.5M2.5,4.5L2.5,8.5" stroke-width="1"/>
        </g>
        <g stroke="#FFF" fill="#FFF" transform="translate(0,1)">
            <use xlink:href="#shoppingCart" x="5" transform="scale(0.78)"/>
            <path d="M0.5,6.5L4.5,6.5M2.5,4.5L2.5,8.5" stroke-width="1"/>
        </g>
    </g>
    <g id="cart-no-add" transform="translate(38,16)">
        <!-- 16x16 -->
        <g stroke="rgba(0,0,0,0.25)" fill="rgba(0,0,0,0.25)">
            <use xlink:href="#shoppingCart" transform="scale(0.88)"/>
        </g>
        <g stroke="#FFF" fill="#FFF" transform="translate(0,1)">
            <use xlink:href="#shoppingCart" transform="scale(0.88)"/>
        </g>
    </g>
    <g id="nav-cart" transform="translate(0,40)">
        <!-- 20x18 :: used in ‘basket’ nav item -->
        <use xlink:href="#shoppingCart" class="green" height="18" width="20"/>
    </g>
    
    <g id="white-twitter" transform="translate(0,58)">
        <!-- 20x20 :: used in footer -->
        <use xlink:href="#twitter" height="10" width="12" x="4.5" y="5"/>
    </g>
    
    <g id="white-facebook" transform="translate(0,78)">
        <!-- 20x20 :: used in footer -->
        <use xlink:href="#facebook" x="7" y="7.5" transform="scale(.469)"/>
    </g>

    <g id="fav-hearts" transform="translate(20,14)">
        <!-- 18x34 :: used in ‘add to favourites’ on product page -->
        <use xlink:href="#heart" class="green"  height="17" width="18"/>
        <use xlink:href="#heart" fill="#AAAAAA" height="17" width="18" y="17"/>
    </g>
    <g id="nav-heart" transform="translate(20,48)">
        <!-- 17x17 :: used in ‘favourites’ nav item -->
        <use xlink:href="#heart" fill="#509732" height="17" width="17"/>
    </g>
</svg>
