<?xml version="1.0" encoding="utf-8"?>
<!-- Generator: Adobe Illustrator 16.0.0, SVG Export Plug-In . SVG Version: 6.00 Build 0)  -->
<!DOCTYPE svg PUBLIC "-//W3C//DTD SVG 1.1//EN" "http://www.w3.org/Graphics/SVG/1.1/DTD/svg11.dtd">
<svg version="1.1" id="Layer_1" xmlns="http://www.w3.org/2000/svg" xmlns:xlink="http://www.w3.org/1999/xlink" x="0px" y="0px"
	 width="500px" height="500px" viewBox="0 0 500 500" enable-background="new 0 0 500 500" xml:space="preserve">
<g id="Layer_1_1_" display="none">
	<rect x="90.403" y="120.667" display="inline" fill="none" width="318.667" height="104"/>
	<g id="PTrWze.tif" display="inline">
		
			<image overflow="visible" enable-background="new    " width="201" height="200" id="Layer_0_1_" xlink:href="9C22FC4654A22F4C.png"  transform="matrix(2.2512 0 0 2.2512 18.5098 25)">
		</image>
	</g>
</g>
<g id="Layer_2">
	<path fill="#7F7F7F" d="M71.51,143.182l33.418-33.025l199.485,52.468l89.223-88.956c0,0,14.116-12.251,31.428-1.598
		c0,0,14.381,14.116,5.06,28.764l-72.442,73.243l-21.308,21.839l49.539,195.225l-33.025,33.558l-84.828-162.198L202.14,328.02
		l5.593,51.735l-26.567,26.767l-29.364-57.328l-60.525-32.959l26.567-25.969l52.135,5.194l65.319-65.12L71.51,143.182z"/>
</g>
</svg>
