<?xml version="1.0" encoding="utf-8"?>
<!-- Generator: Adobe Illustrator 16.0.0, SVG Export Plug-In . SVG Version: 6.00 Build 0)  -->
<!DOCTYPE svg PUBLIC "-//W3C//DTD SVG 1.1//EN" "http://www.w3.org/Graphics/SVG/1.1/DTD/svg11.dtd">
<svg version="1.1" id="Layer_1" xmlns="http://www.w3.org/2000/svg" xmlns:xlink="http://www.w3.org/1999/xlink" x="0px" y="0px"
	 width="500px" height="500px" viewBox="0 0 500 500" enable-background="new 0 0 500 500" xml:space="preserve">
<g id="Layer_2">
	<path fill="#808080" d="M176.796,306.59c15.626,0,25.603,12.668,22.281,28.295c-3.323,15.627-18.683,28.295-34.31,28.295
		s-25.602-12.668-22.28-28.295C145.808,319.258,161.169,306.59,176.796,306.59z"/>
	<path fill="#808080" d="M397.117,306.59c15.627,0,25.604,12.668,22.281,28.295c-3.323,15.627-18.682,28.295-34.31,28.295
		c-15.626,0-25.603-12.668-22.28-28.295C366.13,319.258,381.49,306.59,397.117,306.59z"/>
	<path fill="#808080" d="M339.649,146.252H169.126c-5,0-9.916,4.054-10.979,9.055l-34.722,163.355l-1.524,7.168l-0.2,0.943h-4.716
		l-1.724,8.111h4.716h5.093h3.961h5.135c4.429-20.836,24.909-37.727,45.745-37.727s34.136,16.891,29.708,37.727h69.941h19.996h9.053
		l1.925-9.055l4.249-19.994l31.997-150.529C347.841,150.307,344.649,146.252,339.649,146.252z"/>
	<path fill="#808080" d="M447.171,311.305l11.485-54.023l-49.383-73.302H345.59l-32.076,150.906h39.601
		c4.429-20.836,24.91-37.727,45.745-37.727s34.137,16.891,29.708,37.727h10.764h2.829h5.659l5.011-23.58H447.171z M387.362,249.246
		h-38.48c-5,0-8.193-4.054-7.129-9.055l8.179-38.481c1.062-5,5.979-9.054,10.979-9.054h38.482c2.978,0,5.303,1.444,6.482,3.664
		l0.006-0.014l25.431,40.133c0.001,0.001,0.001,0.001,0.001,0.002c0.838,1.324,2.163,5.007-1.287,9.408
		c-1.828,2.332-4.92,3.146-7.424,3.396L387.362,249.246L387.362,249.246z"/>
</g>
<line fill="none" x1="41.947" y1="136.821" x2="120.795" y2="290.744"/>
<polygon fill="#808080" points="46.677,146.252 66.533,161.343 168.325,161.343 168.325,146.252 "/>
<polygon fill="#808080" points="70.067,168.888 89.924,183.979 191.715,183.979 191.715,168.888 "/>
<polygon fill="#808080" points="94.212,191.524 114.068,206.615 215.859,206.615 215.859,191.524 "/>
<polygon fill="#808080" points="120.795,214.16 140.651,229.25 242.442,229.25 242.442,214.16 "/>
</svg>
