<?xml version="1.0" encoding="utf-8"?>
<!-- Generator: Adobe Illustrator 16.0.0, SVG Export Plug-In . SVG Version: 6.00 Build 0)  -->
<!DOCTYPE svg PUBLIC "-//W3C//DTD SVG 1.1//EN" "http://www.w3.org/Graphics/SVG/1.1/DTD/svg11.dtd">
<svg version="1.1" id="Layer_1" xmlns="http://www.w3.org/2000/svg" xmlns:xlink="http://www.w3.org/1999/xlink" x="0px" y="0px"
	 width="500px" height="500px" viewBox="0 0 500 500" enable-background="new 0 0 500 500" xml:space="preserve">
<g id="Layer_1_1_" display="none">
	<g id="I4s6Xw_1_" display="inline">
		
			<image overflow="visible" enable-background="new    " width="62" height="43" id="I4s6Xw_2_" xlink:href="6FD0C11FE64BD4AC.jpeg"  transform="matrix(10.2932 0 0 10.3889 -135.2031 72.2734)">
		</image>
		<path fill="#7E7E7E" stroke="#7E7E7E" stroke-miterlimit="10" d="M141,221.333"/>
	</g>
</g>
<g id="Layer_2">
	<circle fill="#7E7E7E" cx="133.327" cy="333.215" r="31.023"/>
	<circle fill="#7E7E7E" cx="374.897" cy="333.215" r="31.023"/>
	<path fill="#7E7E7E" d="M273.692,126.391H86.723c-5.482,0-9.928,4.445-9.928,9.928v179.109v7.859v1.034h-5.17v8.894h5.17h5.584
		h4.343h5.63c0-22.846,18.52-41.365,41.365-41.365c22.845,0,41.365,18.52,41.365,41.365h76.686h21.924h9.927v-9.928v-21.924V136.318
		C283.619,130.836,279.175,126.391,273.692,126.391z"/>
	<path fill="#7E7E7E" d="M430.878,307.361v-59.233l-71.229-80.373h-69.825v165.459h43.421c0-22.846,18.52-41.365,41.365-41.365
		c22.844,0,41.364,18.52,41.364,41.365h11.802h3.102h6.205v-25.854H430.878z M350.838,239.316h-42.192
		c-5.482,0-9.928-4.445-9.928-9.928v-42.192c0-5.482,4.445-9.927,9.928-9.927h42.192c3.265,0,6.152,1.583,7.962,4.017l0.003-0.016
		l37.236,44.003c0.001,0.001,0.001,0.001,0.002,0.002c1.229,1.453,3.539,5.491,0.781,10.316c-1.461,2.556-4.661,3.448-7.35,3.723
		L350.838,239.316L350.838,239.316z"/>
</g>
</svg>
