<?xml version="1.0" standalone="no"?>
<svg width="1200" height="360" viewport="0 0 1200 360"
     xmlns="http://www.w3.org/2000/svg" version="1.1" xmlns:xlink="http://www.w3.org/1999/xlink">
    <defs>
        <symbol id="heart" fill="#EEFFEE" stroke-width="0" opacity="0.1">
            <path d="M50.005,16.668c29.633-45.319,95.911,8.205,0,83.313C50.005,40.5,50.005,57.104,50.005,16.668z
                 M50.005,99.981c0-59.481,0-42.877,0-83.313C20.372-28.651-45.906,24.873,50.005,99.981"/>
        </symbol>
        
        <linearGradient id="background" x1="10%" y1="0%" x2="90%" y2="100%">
            <stop stop-color="#5da93a" offset="20%"  />
            <stop stop-color="#43852a" offset="80%"/>
        </linearGradient>
    </defs>
    
    <!-- gradient background -->
    <rect x="0" y="0" height="100%" width="100%" fill="url(#background)" stroke-width="0"/>
    
    <!-- draw hearts -->
    <use xlink:href="#heart" transform="translate(155 175) scale(2.5)"/>
    <use xlink:href="#heart" transform="translate(282 120) scale(0.4)"/>
    <use xlink:href="#heart" transform="translate(385 65) scale(1.2)"/>
    <use xlink:href="#heart" transform="translate(520 155) scale(0.7)"/>
    <use xlink:href="#heart" transform="translate(440 235) scale(2.1)"/>
    <use xlink:href="#heart" transform="translate(625 135) scale(.95)"/>
    <use xlink:href="#heart" transform="translate(675 310) scale(.65)"/>
    <use xlink:href="#heart" transform="translate( 80 150) scale(.65)"/>
    <use xlink:href="#heart" transform="translate(60 -100) scale(2.2)"/>
    <use xlink:href="#heart" transform="translate(-80 290) scale(2.0)"/>
</svg>
