<?xml version="1.0" standalone="no"?>
<svg width="1200" height="360" viewport="0 0 1200 360"
     xmlns="http://www.w3.org/2000/svg" version="1.1" xmlns:xlink="http://www.w3.org/1999/xlink">
    <defs>
        <symbol id="heart" fill="#EECCFF" stroke-width="0" opacity="0.1">
            <path d="M108.2,184.44c17.14-30.16,95.16-56.52,97.75-122.12c1.69-42.82-41.84-92.82-102.38-37.58C78.24-9.69,9.53-15.34,0.52,54.66c-7.86,61.02,76.43,96.19,100.21,133.27C86.83,151.29-0.72,111.41,12.96,49.62C25.01-4.85,73.58,1.24,103.91,37.41c40.04-51.34,84.63-25.82,91.93,14.11C206.7,110.94,130.68,146.28,108.2,184.44z"/>
        </symbol>
        
        <linearGradient id="background" x1="90%" y1="0%" x2="10%" y2="100%">
            <stop stop-color="#7c61a7" offset="20%"  />
            <stop stop-color="#54437f" offset="80%"/>
        </linearGradient>
    </defs>
    
    <!-- gradient background -->
    <rect x="0" y="0" height="100%" width="100%" fill="url(#background)" stroke-width="0"/>
    
    <!-- draw hearts -->
    <use x="0" y="0" xlink:href="#heart" transform="translate(950 0) rotate(30, 90, 90)"/>
    <use x="0" y="0" xlink:href="#heart" transform="translate(800 200) rotate(20, 90, 90) scale(2.5)"/>
    <use x="0" y="0" xlink:href="#heart" transform="translate(50 40) rotate(20, 90, 90) scale(2.2)"/>
    <use x="0" y="0" xlink:href="#heart" transform="translate(300 280) rotate(-55, 90, 90) scale(3)"/>
</svg>
