<?xml version="1.0" encoding="utf-8"?>
<!-- Generator: Adobe Illustrator 16.0.0, SVG Export Plug-In . SVG Version: 6.00 Build 0)  -->
<!DOCTYPE svg PUBLIC "-//W3C//DTD SVG 1.1//EN" "http://www.w3.org/Graphics/SVG/1.1/DTD/svg11.dtd">
<svg version="1.1" id="Layer_1" xmlns="http://www.w3.org/2000/svg" xmlns:xlink="http://www.w3.org/1999/xlink" x="0px" y="0px"
	 width="521px" height="277px" viewBox="0 0 521 277" enable-background="new 0 0 521 277" xml:space="preserve">
<g>
	<g>
		<path fill="#006241" d="M326.602,277.786h106.941c26.656,0,49.506-7.303,62.682-20.031l0.203-0.177
			c16.926-13.032,24.807-29.531,24.807-51.9c0-16.705-6.596-32.269-18.559-43.827c-11.377-10.98-27.393-24.124-50.242-28.325
			l-0.08-4.645c17.844-3.843,30.703-11.46,40.447-23.972l0.152-0.195l0.166-0.148c9.131-7.845,15.271-23.745,15.271-39.598
			c0-23.015-6.834-38.164-21.463-47.667C469.266,5.83,450.078,1.145,420.713,1.145h-94.111v11.793
			c12.049,0.025,18.297,0.3,21.996,5.067c3.453,4.414,6.943,16.813,6.943,34.552v173.81c0,17.741-3.49,30.134-6.943,34.559
			c-3.076,3.959-9.361,8.625-21.996,9.152V277.786L326.602,277.786z M423.922,265.986c-10.52,0-20.451,0-24.381-5.067
			c-3.713-4.768-3.713-16.647-3.713-30.413v-93.397h15.234c25.139,0,40.562,5.331,49.967,17.265
			c9.457,8.286,13.494,23.651,13.494,51.304c0,21.704-3.619,34.433-13.35,46.97C454.479,261.247,441.244,265.986,423.922,265.986
			L423.922,265.986z M411.062,129.419h-15.234V52.557c0-17.597,0-25.626,3.697-30.416c2.154-2.778,8.555-9.203,21.188-9.203
			c13.561,0,23.92,4.49,30.811,13.335c6.451,8.293,13.371,25.24,13.371,42.845c0,17.239-4.377,31.25-13.371,42.837l-0.145,0.188
			l-0.188,0.152C437.756,123.817,424.629,129.419,411.062,129.419L411.062,129.419z"/>
		<path fill="#006241" d="M131.127,277.809h95.033v-9.279c-7.011-0.697-27.165-4.916-27.165-30.38V40.786
			c0-25.472,20.158-29.69,27.172-30.387V1.12h-95.041v9.279c7.018,0.697,27.169,4.916,27.169,30.387v88.933H68.363V40.786
			c0-25.472,20.136-29.69,27.151-30.387V1.12H0.498v9.279c7.014,0.704,27.144,4.923,27.144,30.387v197.363
			c0,25.464-20.133,29.683-27.144,30.38v9.279h95.026v-9.279c-7.011-0.697-27.155-4.916-27.155-30.38v-95.8h89.919v95.8
			c0,15.614-7.809,23.076-14.357,26.595c-4.938,2.654-9.947,3.514-12.804,3.792V277.809L131.127,277.809z"/>
		<path fill="#006241" d="M262.852,48.461c-0.838,0-1.338,0.04-1.338,0.04l-0.162,0.007c-29.181,0-40.063,26.302-40.063,42.874
			c0,15.658,8.676,30.517,8.766,30.676l0.925,1.549l-1.506,0.997c-26.599,17.532-26.696,49.949-26.689,50.274
			c0,6.36,2.099,20.324,9.987,32.396c10.055,15.394,25.973,23.192,47.298,23.192c21.809,0,38.43-7.683,49.411-22.839
			c8.85-12.215,11.992-26.804,11.992-36.394c0-17.857-5.434-30.713-5.482-30.839l-0.969-2.232l2.398-0.39
			c21.744-3.471,36.344-24.897,36.344-42.733c0-18.161-13.09-35.339-26.945-35.339c-14.311,0-18.125,13.953-18.125,22.199
			c0,8.723,5.453,13.931,10.75,13.931c4.449,0,7.295-1.347,8.676-4.103c2.65-5.313-0.781-14.708-2.393-16.853
			c-1.871-2.493-2.289-5.678-1.068-8.105c0.744-1.484,2.768-3.984,7.969-3.984c8.77,0,14.592,11.385,14.592,18.912
			c0,6.942,0,17.442-9.76,23.16c-9.088,5.328-14.396,7.058-36.748,14.372c-24.568,8.029-25.811,27.88-25.811,31.778
			c0,8.087,2.045,21.769,9.723,21.769c7.795,0,11.248-9.38,11.248-12.948c0-3.37-2.746-9.637-5.332-9.637
			c-0.158,0-0.303,0.014-0.461,0.062c-0.73,0.202-1.467,0.296-2.197,0.296c-2.803,0-5.287-1.416-6.486-3.709
			c-1.258-2.395-0.889-5.357,1.033-8.12c3.496-5.049,10.221-5.587,12.951-5.587c0.701,0,1.178,0.021,1.389,0.05
			c8.154,0.029,13.189,4.544,15.971,8.329c3.273,4.432,5.223,10.396,5.223,15.947c0,5.663-0.938,16.661-7.209,26.598
			c-8.047,12.75-21.83,19.208-40.988,19.208c-46.799,0-51.849-34.75-51.849-49.686c0-18.298,14.462-24.272,15.076-24.525l1.427-0.56
			l0.856,1.26c4.895,7.26,13.671,10.525,18.345,10.525c4.071,0,12.475-2.85,12.475-11.663c0-8.354-5.186-13.548-13.541-13.548
			c-8.499,0-12.852,2.001-12.895,2.023l-2.24,1.062l-0.437-2.445c-4.825-26.927,2.445-47.276,10.869-57.339
			c4.811-5.747,10.529-8.917,16.091-8.917c17.121,0,21.484,12.764,21.715,16.188c0.123,1.716-0.396,3.341-1.43,4.45
			c-0.854,0.914-1.951,1.409-3.086,1.409c-1.17,0-2.254-0.513-3.098-1.456c-1.121-1.257-3.186-1.296-3.201-1.296
			c-2.889,0-5.07,0.845-6.682,2.586c-2.883,3.131-3.105,8.585-2.969,10.417l0.014,0.166l-0.014,0.17
			c-0.014,0.061-0.535,6.267,3.092,10.218c2.066,2.269,5.172,3.424,9.238,3.424c13.539,0,14.225-16.124,14.262-17.074
			C291.76,50.646,269.641,48.461,262.852,48.461L262.852,48.461z M253.189,136.979c-7.972,0-12.021-7.412-13.039-11.327
			l-0.379-1.427l1.304-0.711c4.616-2.528,9.384-3.93,13.444-3.93c4.345,0,7.425,1.65,8.429,4.533
			c1.164,3.341,0.863,6.74-0.822,9.113C260.915,134.931,258.379,136.979,253.189,136.979L253.189,136.979z"/>
	</g>
</g>
</svg>
