<?xml version="1.0" encoding="utf-8"?>
<!-- Generator: Adobe Illustrator 16.0.0, SVG Export Plug-In . SVG Version: 6.00 Build 0)  -->
<!DOCTYPE svg PUBLIC "-//W3C//DTD SVG 1.1//EN" "http://www.w3.org/Graphics/SVG/1.1/DTD/svg11.dtd">
<svg version="1.1" id="Layer_1" xmlns="http://www.w3.org/2000/svg" xmlns:xlink="http://www.w3.org/1999/xlink" x="0px" y="0px"
	 width="520px" height="50px" viewBox="0 0 520 50" enable-background="new 0 0 520 50" xml:space="preserve">
<g>
	<g>
		<polygon fill="#00704A" points="281.463,45.553 487.938,45.553 487.938,48.799 281.463,48.799 281.463,45.553 		"/>
		<polygon fill="#00704A" points="47.01,45.553 239.585,45.553 239.585,48.799 47.01,48.799 47.01,45.553 		"/>
		<path fill-rule="evenodd" clip-rule="evenodd" fill="#00704A" d="M310.271,20.908V33.81c0,1.759,0,3.52,0.456,4.104
			c0.456,0.587,1.824,0.587,3.191,0.587c2.278,0,4.102-0.587,5.013-1.76c1.368-1.758,1.824-3.519,1.824-6.45
			c0-3.519-0.456-5.865-1.824-7.037c-1.367-1.76-3.646-2.346-6.836-2.346H310.271L310.271,20.908z M310.271,19.148h1.824
			c2.279,0,4.102-1.173,5.469-2.346c0.912-1.172,1.823-2.932,1.823-5.863c0-2.346-0.911-4.692-1.823-5.865
			c-0.911-1.172-2.279-1.759-4.102-1.759c-1.367,0-2.279,0.587-2.735,1.173c-0.456,0.586-0.456,1.76-0.456,4.106V19.148
			L310.271,19.148z M299.79,40.846v-1.758c1.821,0,2.733-0.587,3.189-1.174c0.456-0.585,0.912-2.346,0.912-4.691V8.593
			c0-2.346-0.456-4.106-0.912-4.692c-0.456-0.587-1.368-0.587-3.189-0.587V0.969h13.672c4.102,0,6.925,0.629,9.57,2.346
			c2.415,1.568,3.191,4.105,3.191,7.038c0,2.345-0.911,4.691-2.279,5.864c-1.367,1.758-3.189,2.931-5.925,3.519
			c3.19,0.586,5.469,2.346,7.293,4.104c1.823,1.76,2.734,4.105,2.734,6.451c0,3.519-1.367,5.865-3.646,7.623
			c-1.823,1.76-5.014,2.932-9.116,2.932H299.79L299.79,40.846z"/>
		<path fill-rule="evenodd" clip-rule="evenodd" fill="#00704A" d="M372.713,19.735h0.912h1.363c2.281,0,4.105-0.587,5.473-1.76
			c0.911-1.173,1.365-3.518,1.365-6.45c0-2.346-0.454-4.691-1.365-5.864c-0.912-1.174-2.28-1.76-4.103-1.76
			c-1.37,0-2.28,0-3.189,0.586c-0.456,0.586-0.456,2.346-0.456,4.692V19.735L372.713,19.735z M391.854,40.846h-9.115l-4.558-11.729
			c0,0-0.25-0.528-0.455-1.172c-1.323-4.12-3.189-5.864-4.557-5.864h-0.456V33.81c0,1.759,0,3.52,0.456,4.104
			c0.456,0.587,1.819,0.587,3.645,0.587v2.345h-14.586v-2.345c1.825,0,2.737,0,3.192-0.587c0.456-0.585,0.908-2.346,0.908-4.691
			V8.593c0-2.346-0.452-3.52-0.908-4.106c-0.455-0.586-1.367-1.173-3.192-1.173V0.969h12.761c4.561,0,8.206,1.173,10.484,2.933
			c2.28,1.76,3.648,4.105,3.648,7.624c0,2.346-0.912,4.692-2.28,5.865c-1.368,1.758-5.577,3.375-5.469,3.518
			c0.358,0.471,0.654,0.617,0.909,1.173c0.327,0.715,0.585,1.358,0.913,2.345l2.976,7.639c1.031,3.003,2.153,4.528,2.951,5.264
			c1.041,0.958,1.82,1.172,2.732,1.172V40.846L391.854,40.846z"/>
		<path fill-rule="evenodd" clip-rule="evenodd" fill="#00704A" d="M404.209,19.735h0.912h1.366c2.278,0,4.103-0.587,5.472-1.76
			c0.91-1.173,1.364-3.518,1.364-6.45c0-2.346-0.454-4.691-1.364-5.864c-0.913-1.174-2.281-1.76-4.104-1.76
			c-1.367,0-2.28,0-3.189,0.586c-0.456,0.586-0.456,2.346-0.456,4.692V19.735L404.209,19.735z M423.351,40.846h-9.116l-4.557-11.729
			c0,0-0.248-0.528-0.455-1.172c-1.321-4.12-3.189-5.864-4.558-5.864h-0.456V33.81c0,1.759,0,3.52,0.456,4.104
			c0.456,0.587,1.822,0.587,3.645,0.587v2.345h-14.584v-2.345c1.823,0,2.736,0,3.191-0.587c0.456-0.585,0.909-2.346,0.909-4.691
			V8.593c0-2.346-0.453-3.52-0.909-4.106c-0.455-0.586-1.368-1.173-3.191-1.173V0.969h12.762c4.559,0,8.203,1.173,10.482,2.933
			c2.281,1.76,3.648,4.105,3.648,7.624c0,2.346-0.911,4.692-2.278,5.865c-1.37,1.758-5.578,3.375-5.471,3.518
			c0.359,0.471,0.655,0.617,0.909,1.173c0.329,0.715,0.586,1.358,0.912,2.345l2.978,7.639c1.03,3.003,2.105,4.843,2.903,5.578
			c1.041,0.959,1.868,1.13,2.779,1.13V40.846L423.351,40.846z"/>
		<path fill="#00704A" d="M425.127,40.846V38.95c1.82,0,2.733-0.584,3.189-1.171c0.455-0.587,0.911-2.346,0.911-4.692V8.593
			c0-2.346-0.456-3.52-0.911-4.106c-0.456-0.586-1.369-1.173-3.189-1.173V0.969h24.154l2.735,10.556l-1.367,1.172
			c-2.278-3.518-3.987-5.493-5.704-7.094c-1.63-1.521-3.867-2.289-5.69-2.289c-1.367,0-2.735,0.587-3.191,1.173
			c-0.455,0.586-0.455,1.76-0.455,3.519v11.142h0.911c2.279,0,3.838-0.261,5.014-1.173c1.125-0.872,1.823-2.932,1.823-5.278h1.824
			v15.835h-1.824c0-2.933-0.928-4.277-1.823-5.278c-0.989-1.106-2.734-1.76-5.014-1.76h-0.911v13.489c0,1.173,0,2.346,0.455,2.931
			c0.456,0.587,1.368,0.587,2.28,0.587c2.734,0,5.001-0.571,6.837-1.76c2.128-1.376,4.101-4.105,5.925-7.624l1.823,1.174
			l-2.735,10.555H425.127L425.127,40.846L425.127,40.846z"/>
		<path fill="#00704A" d="M461.59,40.846v-2.345c1.82,0,2.731,0,3.188-0.587c0.913-0.585,0.913-2.346,0.913-4.691V3.314
			c-1.369,0-2.736,1.173-4.101,2.347c-1.367,1.172-3.192,3.518-5.016,7.036l-1.366-0.586l2.277-11.143h23.244l2.281,11.143
			l-1.825,0.586c-1.823-3.518-3.188-5.864-4.556-7.036c-1.367-1.174-3.192-2.347-4.56-2.347v29.908c0,2.346,0.456,4.106,0.911,4.691
			c0.456,0.587,1.368,0.587,3.193,0.587h0.455v2.345H461.59L461.59,40.846L461.59,40.846z"/>
		<path fill="#00704A" d="M492.58,48.47v-2.345c1.824,0,3.093-0.297,4.103-1.173c0.759-0.656,0.913-2.933,0.913-5.864V3.314
			c-1.824,0-3.244,1.244-5.016,2.933c-1.569,1.495-3.646,4.105-5.926,8.21l-1.819-0.587l2.73-12.902h27.805l2.733,12.902
			l-1.824,0.587c-2.276-4.105-4.031-6.466-5.923-8.21c-1.639-1.511-3.189-2.933-5.014-2.933v35.773c0,2.932,0.104,4.664,0.912,5.864
			c0.629,0.931,1.821,1.173,4.102,1.173v2.345H492.58L492.58,48.47L492.58,48.47z"/>
		<path fill="#00704A" d="M13.081,25.6v15.765c0,4.805,4.583,4.749,4.583,4.749v2.345H0.828v-2.345c0,0,4.583,0.056,4.583-4.749
			L5.41,8.063c0-4.806-4.583-4.749-4.583-4.749V0.969h16.836v2.346c0,0-4.583-0.057-4.583,4.749v14.604h14.374V8.063
			c0-4.806-4.583-4.749-4.583-4.749V0.969h16.836v2.346c0,0-4.583-0.057-4.583,4.749l-0.001,33.301c0,4.805,4.583,4.749,4.583,4.749
			v2.345H22.87v-2.345c0,0,4.583,0.056,4.583-4.749V25.6H13.081z"/>
		<path fill="#00704A" d="M101.078,40.815H76.468v-1.97c0,0,3.844,0.049,3.844-3.983V6.921c0-4.033-3.845-3.985-3.845-3.985V0.969
			h14.125v1.968c0,0-3.845-0.048-3.845,3.985v28.205c0,0-0.26,3.834,4.031,3.262c4.292-0.573,6.609-2.118,11.659-9.271l0.911,1.174
			L101.078,40.815z"/>
		<path fill="#00704A" d="M129.8,40.815h-24.61v-1.97c0,0,3.845,0.049,3.845-3.983V6.921c0-4.033-3.845-3.985-3.845-3.985V0.969
			h14.126v1.968c0,0-3.846-0.048-3.846,3.985v28.205c0,0-0.26,3.834,4.031,3.262c4.292-0.573,6.61-2.118,11.659-9.271l0.911,1.174
			L129.8,40.815z"/>
		<g>
			<path fill="#00704A" d="M69.102,6.217c2.919,3.848,4.378,8.801,4.378,14.863c0,6.061-1.459,11.014-4.378,14.861
				c-2.85,3.753-6.413,5.629-10.687,5.629c-4.539,0-8.239-2.055-11.102-6.164c-2.67-3.865-4.004-8.537-4.004-14.018
				c0-6.041,1.397-11.004,4.191-14.889c2.822-3.94,6.46-5.911,10.915-5.911C62.704,0.589,66.266,2.466,69.102,6.217z M64.98,31.958
				c0.637-2.781,0.957-6.406,0.957-10.878c0-6.143-0.676-10.774-2.029-13.893s-3.187-4.678-5.502-4.678
				c-3.219,0-5.424,2.603-6.618,7.806c-0.624,2.762-0.936,6.35-0.936,10.765c0,4.489,0.319,8.116,0.957,10.878
				c1.179,5.128,3.377,7.69,6.597,7.69C61.595,39.648,63.787,37.086,64.98,31.958z"/>
		</g>
		<g>
			<g>
				<path fill="#00704A" d="M158.695,34.154c-1.086-4.749-7.945-33.771-7.945-33.771l-5.014,1.759l-8.497,30.696
					c0,0-1.374,5.207-4.265,5.663v2.345h9.116v-2.345c0,0-4.944,0.002-3.457-4.519l2.089-6.623h10.027l1.685,6.802
					c0,0,1.195,4.168-3.053,4.34v2.345h13.674v-2.401C163.056,38.444,159.782,38.902,158.695,34.154z M141.179,25.014l5.012-17.594
					l4.103,17.594H141.179z"/>
			</g>
		</g>
		<g>
			<g>
				<path fill="#00704A" d="M355.267,34.154c-1.087-4.749-7.944-33.771-7.944-33.771l-5.016,1.759l-8.496,30.696
					c0,0-1.374,5.207-4.265,5.663v2.345h9.117v-2.345c0,0-4.947,0.002-3.459-4.519l2.091-6.623h10.027l1.684,6.802
					c0,0,1.194,4.168-3.051,4.34v2.345h13.672v-2.401C359.627,38.444,356.352,38.902,355.267,34.154z M337.749,25.014l5.014-17.594
					l4.104,17.594H337.749z"/>
			</g>
		</g>
		<path fill="#00704A" d="M174.451,0.969h-10.028v2.346c0,0,2.943-0.056,4.559,2.347v26.948c0,0,0.311,5.661-4.559,5.892v2.345
			h10.939v-2.345c0,0-4.594,0.23-4.594-5.892c0-6.123,0-24.016,0-24.016l16.9,32.252h3.646V9.607c0,0-0.262-5.948,4.558-6.293V0.969
			h-10.938v2.346c0,0,4.602,0.686,4.602,6.351c0,5.664,0,19.452,0,19.452L174.451,0.969z"/>
		<g>
			<g>
				<path fill="#00704A" d="M213.107,1.025c-1.038,0-1.029,0-14.957,0v2.29c0,0,4.143-0.516,4.143,4.977c0,5.493,0,25.347,0,25.347
					s0.068,5.233-4.143,5.449v1.758h14.957c0,0,15.105,0.403,15.105-19.966S214.138,1.025,213.107,1.025z M218.943,35.241
					c-1.545,2.859-5.607,3.375-8.068,3.26c-2.459-0.113-2.231-3.433-2.231-3.433V6.805c0-2.804,2.46-3.376,2.46-3.376
					c2.747-0.572,5.837,0.743,6.924,2.06c1.087,1.316,3.317,4.92,3.317,13.788C221.346,28.146,220.489,32.381,218.943,35.241z"/>
			</g>
		</g>
		<g>
			<g>
				<path fill="#00704A" d="M285.715,13.156c0-5.035-3.604-9.898-7.667-9.898c-4.061,0-5.321,3.89-5.321,6.408
					c0,2.517,1.603,4.206,3.361,4.206c4.736,0,2.761-5.464,2.074-6.38s-0.514-2.403,1.432-2.403s3.374,2.69,3.374,4.52
					c0,1.832,0,4.349-2.346,5.722c-2.345,1.374-3.718,1.831-9.669,3.776c-5.952,1.945-7.21,6.522-7.21,8.927
					c0,2.402,0.631,6.293,3.091,6.293c2.459,0,3.49-2.86,3.49-3.947s-0.916-3.377-2.174-3.032c-1.258,0.342-2.519-0.802-1.487-2.29
					c1.028-1.487,3.376-1.259,3.376-1.259c3.433,0,5.148,3.375,5.148,5.95c0,2.575-0.802,11.673-12.302,11.673
					c-11.5,0-13.274-8.125-13.274-12.701c0-4.578,3.688-6.051,3.688-6.051c1.399,2.074,3.865,3.018,5.295,3.018
					s3.822-1.029,3.822-3.604s-1.704-4.106-4.104-4.106c-2.399,0-3.646,0.587-3.646,0.587c-1.753-9.812,2.611-17.021,6.673-17.021
					s5.208,2.976,5.266,3.833s-0.687,1.316-1.145,0.801c-0.46-0.514-1.224-0.514-1.224-0.514c-3.398,0-3.068,4.004-3.068,4.004
					s-0.4,4.177,3.776,4.177s4.29-5.035,4.29-5.035c0-9.213-8.582-8.525-8.582-8.525c-8.238,0-11.156,7.553-11.156,11.901
					c0,4.348,2.403,8.411,2.403,8.411c-7.381,4.863-7.323,13.788-7.323,13.788c0,3.319,2.06,15.276,15.734,15.276
					c13.677,0,16.822-11.328,16.822-16.249s-1.499-8.396-1.499-8.396C281.63,24.055,285.715,18.19,285.715,13.156z M260.597,21.05
					c0.4,1.144,0.172,2.747-2.117,2.747c-2.288,0-2.976-2.632-2.976-2.632C257.908,19.849,260.196,19.907,260.597,21.05z"/>
			</g>
		</g>
	</g>
</g>
</svg>
